# xmcd
#
# Track frame offsets:
#	150
#	14560
#	28838
#	43765
#	62865
#	76695
#	92338
#	105185
#	123033
#	135680
#	154045
#	167470
#
# Disc length: 2438 seconds
#
# Revision: 1
# Processed by: cddbd v1.5.2PL0 Copyright (c) Steve Scherf et al.
# Submitted via: EasyCDDAExtractor 15.2.0.1
#
DISCID=8509840c
DTITLE=Hanna Ekola - Luonnonlapset
DYEAR=1993
DGENRE=Blues
TTITLE0=Pisara vain
TTITLE1=Luimienkeli
TTITLE2=L‰mmint‰ pakkasp‰iv‰‰ herra H
TTITLE3=Tuhkan lailla
TTITLE4=Luonnonlapset
TTITLE5=Pieni‰ ilot
TTITLE6=T‰n‰ vuonna ei tullut kes‰‰
TTITLE7=Kiitos hyv‰‰ vaan
TTITLE8=El‰m‰n lahjat ovat t‰ss‰
TTITLE9=Keiju
TTITLE10=Kedon keijujen tanssi
TTITLE11=Yˆ lamppu
EXTD=Hanna ekola \nluonnonlapset
EXTT0=
EXTT1=
EXTT2=
EXTT3=
EXTT4=
EXTT5=
EXTT6=
EXTT7=
EXTT8=
EXTT9=
EXTT10=
EXTT11=
PLAYORDER=
